<?xml version="1.0" encoding="UTF-8" standalone="no"?>
<svg
   xmlns:dc="http://purl.org/dc/elements/1.1/"
   xmlns:cc="http://creativecommons.org/ns#"
   xmlns:rdf="http://www.w3.org/1999/02/22-rdf-syntax-ns#"
   xmlns:svg="http://www.w3.org/2000/svg"
   xmlns="http://www.w3.org/2000/svg"
   xmlns:sodipodi="http://sodipodi.sourceforge.net/DTD/sodipodi-0.dtd"
   xmlns:inkscape="http://www.inkscape.org/namespaces/inkscape"
   width="120"
   height="120"
   viewBox="0 0 31.749999 31.750001"
   version="1.1"
   id="svg8"
   inkscape:version="1.0 (4035a4f, 2020-05-01)"
   sodipodi:docname="favi.svg">
  <style>
   #path842{fill: #fff;}
   @media (prefers-color-scheme: dark) { #path842{fill:#f00;}}
  </style>
  <defs
     id="defs2" />
  <sodipodi:namedview
     inkscape:snap-global="false"
     id="base"
     pagecolor="#ffffff"
     bordercolor="#666666"
     borderopacity="1.0"
     inkscape:pageopacity="0.0"
     inkscape:pageshadow="2"
     inkscape:zoom="1.2258291"
     inkscape:cx="-51.121787"
     inkscape:cy="67.176903"
     inkscape:document-units="px"
     inkscape:current-layer="layer1"
     inkscape:document-rotation="0"
     showgrid="false"
     units="px"
     inkscape:showpageshadow="false"
     borderlayer="true"
     inkscape:window-width="1920"
     inkscape:window-height="1027"
     inkscape:window-x="0"
     inkscape:window-y="25"
     inkscape:window-maximized="1" />
  <metadata
     id="metadata5">
    <rdf:RDF>
      <cc:Work
         rdf:about="">
        <dc:format>image/svg+xml</dc:format>
        <dc:type
           rdf:resource="http://purl.org/dc/dcmitype/StillImage" />
        <dc:title />
      </cc:Work>
    </rdf:RDF>
  </metadata>
  <g
     style="display:inline"
     inkscape:label="レイヤー 1"
     inkscape:groupmode="layer"
     id="layer1">
    <g
       transform="translate(13.396598,-43.329418)"
       id="g1592">
      <path
         id="rect858"
         style="fill:#000000;stroke-width:0.0887548;stroke-linecap:round;stroke-dashoffset:4"
         d="m -13.396536,43.329418 h 31.75 v 31.75 h -31.75 z" />
      <path
         id="path842"
         style="stroke:none;stroke-width:0.185327px;stroke-linecap:butt;stroke-linejoin:miter;stroke-opacity:1"
         d="M -10.488281,163.76562 9.3671875,178.17188 29.222656,163.76562 Z m -40.144531,13.2793 V 188.25 c 0.09625,-0.22007 0.196948,-0.43932 0.3125,-0.6582 1.536094,-2.9097 5.487831,-4.08234 10.203124,-4.0293 9.001927,0.10125 20.790184,4.6685 23.884766,10.13477 2.042102,3.60715 -3.770715,12.42549 -6.863281,15.18554 -3.750033,3.34683 -10.850452,3.27866 -15.068359,0.54492 -4.769488,-3.0912 -10.444873,-8.12224 -12.46875,-13.53906 v 9.37305 c 3.439297,3.64324 7.408936,6.88148 10.550781,8.95117 5.877985,3.80965 15.774037,3.90625 21,-0.75781 4.309736,-3.84635 12.4102901,-16.13719 9.5644529,-21.16406 -4.1807429,-7.38487 -19.7450089,-14.51434 -32.1249999,-14.08985 -3.168175,0.10864 -6.138513,-0.35303 -8.990234,-1.15625 z m 120,0 c -2.851721,0.80322 -5.822062,1.26488 -8.990235,1.15625 -12.37999,-0.42449 -27.944256,6.70498 -32.125,14.08985 -2.845837,5.02687 5.254719,17.31771 9.564453,21.16406 5.225964,4.66406 15.122011,4.56746 21,0.75781 3.141847,-2.06969 7.111487,-5.30793 10.550782,-8.95117 v -9.37305 c -2.023879,5.41682 -7.699268,10.44786 -12.46875,13.53906 -4.217912,2.73374 -11.318332,2.80191 -15.06836,-0.54492 -3.092564,-2.76005 -8.905386,-11.57839 -6.863281,-15.18554 3.094583,-5.46627 14.882834,-10.03352 23.884765,-10.13477 4.71529,-0.053 8.667035,1.1196 10.203126,4.0293 0.115551,0.21888 0.216252,0.43813 0.3125,0.6582 z M 9.3066406,193.9375 a 4.158065,4.5179006 0 0 0 -3.1152344,1.59961 c 0,0 -5.41179698,6.93483 -10.2636718,15.75 -2.4259419,4.40759 -4.7419798,9.30315 -6.2011724,14.28125 -1.459195,4.9781 -2.18088,10.18111 -0.53125,15.10547 1.0365847,3.09434 3.2910113,4.89619 5.4355474,6.07617 2.14453,1.17998 4.41102352,1.85503 6.5390625,2.32812 4.2560921,0.94626 8.109375,1.01758 8.109375,1.01758 a 4.158065,4.5179006 0 0 0 0.1757812,0 c 0,0 3.8532839,-0.0713 8.1093749,-1.01758 2.128046,-0.47309 4.394525,-1.14814 6.539063,-2.32812 2.14453,-1.17998 4.398961,-2.98183 5.435546,-6.07617 1.64963,-4.92436 0.927948,-10.12737 -0.53125,-15.10547 -1.459198,-4.9781 -3.775229,-9.87366 -6.201171,-14.28125 -4.851877,-8.81517 -10.263672,-15.75 -10.263672,-15.75 A 4.158065,4.5179006 0 0 0 9.3066406,193.9375 Z m 0.019531,8.91797 a 2.8372908,3.265708 0 0 1 2.2070314,1.15625 c 0,0 3.69319,5.01283 7.003906,11.38476 1.655362,3.18598 3.236727,6.72586 4.232422,10.32422 0.995696,3.59837 1.486971,7.35846 0.361328,10.91797 -0.70732,2.23671 -2.245646,3.53964 -3.708984,4.39258 -1.463343,0.85294 -3.008848,1.33965 -4.460937,1.68164 -2.90418,0.68395 -5.5332039,0.73633 -5.5332039,0.73633 a 2.8372908,3.265708 0 0 1 -0.1191406,0 c 0,0 -2.6309764,-0.0523 -5.5351563,-0.73633 -1.4520824,-0.34199 -2.99759952,-0.8287 -4.4609375,-1.68164 -1.463343,-0.85294 -3.0016623,-2.15587 -3.7089844,-4.39258 -1.12564,-3.55951 -0.6324126,-7.3196 0.3632813,-10.91797 0.9956921,-3.59836 2.5751067,-7.13824 4.23046872,-10.32422 3.31071898,-6.37193 7.00390628,-11.38476 7.00390628,-11.38476 a 2.8372908,3.265708 0 0 1 2.125,-1.15625 z m 0.041016,47.39648 c -20.9657986,0 -37.9609286,4.92658 -37.9609376,11.00391 9e-6,6.07732 16.995139,17.92578 37.9609376,17.92578 20.9657894,0 37.9628904,-11.84846 37.9628904,-17.92578 0,-6.07733 -16.997101,-11.00391 -37.9628904,-11.00391 z m -0.6015625,7.20508 c 16.8613799,0 30.5292889,2.47286 30.5292969,5.52344 -8e-6,3.05058 -13.667917,8.99805 -30.5292969,8.99805 -16.8613829,0 -30.5312431,-5.94747 -30.5312501,-8.99805 7e-6,-3.05058 13.6698672,-5.52344 30.5312501,-5.52344 z"
         transform="scale(0.26458333)" />
    </g>
  </g>
</svg>
